<svg xmlns:xlink="http://www.w3.org/1999/xlink" xmlns="http://www.w3.org/2000/svg" width="230" height="230"><polygon fill="#F78419" stroke="#F78419" points="127.96122062951326,66.4553014934063 100.91632027179003,66.52486816048622 90.46261847019196,39.739799201488495"></polygon><polygon fill="#F78419" stroke="#F78419" points="90.46261847019196,39.739799201488495 139.13794726133347,39.557461738586426 127.96122062951326,66.4553014934063"></polygon><polygon fill="#E17719" stroke="#E17719" points="74.99505713582039,169.93516013026237 85.0720003247261,163.89673709869385 86.91706098616123,162.88883611559868"></polygon><polygon fill="#E47719" stroke="#E47719" points="100.91632027179003,66.52486816048622 32.36391603946686,15.211157202720642 90.46261847019196,39.739799201488495"></polygon><polygon fill="#773900" stroke="#773900" points="60.808371752500534,87.65065036714077 29.977708756923676,80.06764203310013 28.253834545612335,72.83586859703064"></polygon><polygon fill="#773900" stroke="#773900" points="31.114937663078308,88.75437088310719 29.977708756923676,80.06764203310013 60.808371752500534,87.65065036714077"></polygon><polygon fill="#773900" stroke="#773900" points="35.53041607141495,101.22226726263762 60.808371752500534,87.65065036714077 73.94550457596779,90.347421169281"></polygon><polygon fill="#773900" stroke="#773900" points="31.114937663078308,88.75437088310719 60.808371752500534,87.65065036714077 35.53041607141495,101.22226726263762"></polygon><polygon fill="#E17719" stroke="#E17719" points="196.71635627746582,14.417004585266113 127.96122062951326,66.4553014934063 139.13794726133347,39.557461738586426"></polygon><polygon fill="#773900" stroke="#773900" points="61.728555262088776,48.97376149892807 60.808371752500534,87.65065036714077 28.253834545612335,72.83586859703064"></polygon><polygon fill="#773900" stroke="#773900" points="73.94550457596779,90.347421169281 60.808371752500534,87.65065036714077 61.728555262088776,48.97376149892807"></polygon><polygon fill="#773900" stroke="#773900" points="168.8849152624607,87.4722371250391 201.52614176273346,72.43674278259277 199.7734099626541,79.73045036196709"></polygon><polygon fill="#773900" stroke="#773900" points="194.1380164027214,101.05460364371538 155.39906486868858,90.22265836596489 168.8849152624607,87.4722371250391"></polygon><polygon fill="#773900" stroke="#773900" points="198.60527396202087,88.48563030362129 194.1380164027214,101.05460364371538 168.8849152624607,87.4722371250391"></polygon><polygon fill="#773900" stroke="#773900" points="198.60527396202087,88.48563030362129 168.8849152624607,87.4722371250391 199.7734099626541,79.73045036196709"></polygon><polygon fill="#773900" stroke="#773900" points="201.52614176273346,72.43674278259277 168.8849152624607,87.4722371250391 167.44097337126732,48.620053827762604"></polygon><polygon fill="#773900" stroke="#773900" points="167.44097337126732,48.620053827762604 168.8849152624607,87.4722371250391 155.39906486868858,90.22265836596489"></polygon><polygon fill="#E47719" stroke="#E47719" points="74.99505713582039,169.93516013026237 32.760731875896454,184.430810213089 21.824391186237335,142.08487085998058"></polygon><polygon fill="#E47719" stroke="#E47719" points="208.2860627770424,142.22218945622444 197.32234507799149,184.85776543617249 153.86163741350174,170.08932203054428"></polygon><polygon fill="#773900" stroke="#773900" points="24.271391332149506,75.53248688578606 28.253834545612335,72.83586859703064 29.977708756923676,80.06764203310013"></polygon><polygon fill="#773900" stroke="#773900" points="61.728555262088776,48.97376149892807 100.91632027179003,66.52486816048622 73.94550457596779,90.347421169281"></polygon><polygon fill="#F78419" stroke="#F78419" points="61.79828301072121,105.0312564894557 21.824391186237335,142.08487085998058 35.53041607141495,101.22226726263762"></polygon><polygon fill="#773900" stroke="#773900" points="31.114937663078308,88.75437088310719 25.465883016586304,83.32969084382057 29.977708756923676,80.06764203310013"></polygon><polygon fill="#E47719" stroke="#E47719" points="21.824391186237335,142.08487085998058 55.6321257352829,138.58342744410038 74.99505713582039,169.93516013026237"></polygon><polygon fill="#F78419" stroke="#F78419" points="55.6321257352829,138.58342744410038 21.824391186237335,142.08487085998058 61.79828301072121,105.0312564894557"></polygon><polygon fill="#773900" stroke="#773900" points="35.53041607141495,101.22226726263762 27.42421656847,91.23584933578968 31.114937663078308,88.75437088310719"></polygon><polygon fill="#773900" stroke="#773900" points="155.39906486868858,90.22265836596489 127.96122062951326,66.4553014934063 167.44097337126732,48.620053827762604"></polygon><polygon fill="#773900" stroke="#773900" points="28.253834545612335,72.83586859703064 22.8573215007782,42.920906245708466 61.728555262088776,48.97376149892807"></polygon><polygon fill="#773900" stroke="#773900" points="205.51697492599487,75.1363804936409 199.7734099626541,79.73045036196709 201.52614176273346,72.43674278259277"></polygon><polygon fill="#F78419" stroke="#F78419" points="166.83691069483757,104.93788488209248 194.1380164027214,101.05460364371538 208.2860627770424,142.22218945622444"></polygon><polygon fill="#773900" stroke="#773900" points="198.60527396202087,88.48563030362129 199.7734099626541,79.73045036196709 204.292933344841,83.00010427832603"></polygon><polygon fill="#E47719" stroke="#E47719" points="153.86163741350174,170.08932203054428 173.01884025335312,138.65172773599625 208.2860627770424,142.22218945622444"></polygon><polygon fill="#F78419" stroke="#F78419" points="166.83691069483757,104.93788488209248 208.2860627770424,142.22218945622444 173.01884025335312,138.65172773599625"></polygon><polygon fill="#773900" stroke="#773900" points="194.1380164027214,101.05460364371538 198.60527396202087,88.48563030362129 202.30185568332672,90.97425974905491"></polygon><polygon fill="#773900" stroke="#773900" points="167.44097337126732,48.620053827762604 206.72636836767197,42.25576967000961 201.52614176273346,72.43674278259277"></polygon><polygon fill="#F78419" stroke="#F78419" points="35.53041607141495,101.22226726263762 73.94550457596779,90.347421169281 61.79828301072121,105.0312564894557"></polygon><polygon fill="#F78419" stroke="#F78419" points="194.1380164027214,101.05460364371538 166.83691069483757,104.93788488209248 155.39906486868858,90.22265836596489"></polygon><polygon fill="#E47719" stroke="#E47719" points="73.94550457596779,90.347421169281 100.91632027179003,66.52486816048622 102.82300062477589,105.69476682692766"></polygon><polygon fill="#E47719" stroke="#E47719" points="102.82300062477589,105.69476682692766 61.79828301072121,105.0312564894557 73.94550457596779,90.347421169281"></polygon><polygon fill="#E47719" stroke="#E47719" points="155.39906486868858,90.22265836596489 166.83691069483757,104.93788488209248 125.26692431420088,105.67550301551819"></polygon><polygon fill="#E47719" stroke="#E47719" points="125.26692431420088,105.67550301551819 127.96122062951326,66.4553014934063 155.39906486868858,90.22265836596489"></polygon><polygon fill="#773900" stroke="#773900" points="32.36391603946686,15.211157202720642 100.91632027179003,66.52486816048622 61.728555262088776,48.97376149892807"></polygon><polygon fill="#773900" stroke="#773900" points="61.728555262088776,48.97376149892807 22.8573215007782,42.920906245708466 32.36391603946686,15.211157202720642"></polygon><polygon fill="#773900" stroke="#773900" points="196.71635627746582,14.417004585266113 206.72636836767197,42.25576967000961 167.44097337126732,48.620053827762604"></polygon><polygon fill="#773900" stroke="#773900" points="167.44097337126732,48.620053827762604 127.96122062951326,66.4553014934063 196.71635627746582,14.417004585266113"></polygon><polygon fill="#F78419" stroke="#F78419" points="100.91632027179003,66.52486816048622 127.96122062951326,66.4553014934063 125.26692431420088,105.67550301551819"></polygon><polygon fill="#F78419" stroke="#F78419" points="125.26692431420088,105.67550301551819 102.82300062477589,105.69476682692766 100.91632027179003,66.52486816048622"></polygon><polygon fill="#CD6200" stroke="#CD6200" points="74.99505713582039,169.93516013026237 55.6321257352829,138.58342744410038 78.52242782711983,137.9101288318634"></polygon><polygon fill="#CD6200" stroke="#CD6200" points="153.86163741350174,170.08932203054428 149.65257987380028,137.949376180768 173.01884025335312,138.65172773599625"></polygon><polygon fill="#CD6200" stroke="#CD6200" points="78.14010247588158,121.23775588348508 61.79828301072121,105.0312564894557 102.82300062477589,105.69476682692766"></polygon><polygon fill="#E47424" stroke="#E47424" points="61.79828301072121,105.0312564894557 78.14010247588158,121.23775588348508 78.52242782711983,137.9101288318634"></polygon><polygon fill="#F78419" stroke="#F78419" points="61.79828301072121,105.0312564894557 78.52242782711983,137.9101288318634 55.6321257352829,138.58342744410038"></polygon><polygon fill="#CD6200" stroke="#CD6200" points="125.26692431420088,105.67550301551819 166.83691069483757,104.93788488209248 150.1437072455883,121.2249057739973"></polygon><polygon fill="#E47424" stroke="#E47424" points="166.83691069483757,104.93788488209248 149.65257987380028,137.949376180768 150.1437072455883,121.2249057739973"></polygon><polygon fill="#F78419" stroke="#F78419" points="173.01884025335312,138.65172773599625 149.65257987380028,137.949376180768 166.83691069483757,104.93788488209248"></polygon><polygon fill="#C0AC9D" stroke="#C0AC9D" points="82.93338909745216,175.2270284295082 74.99505713582039,169.93516013026237 97.57122106850147,174.47381108999252"></polygon><polygon fill="#C0AC9D" stroke="#C0AC9D" points="129.18763644993305,174.54182863235474 153.86163741350174,170.08932203054428 145.423404276371,175.36361873149872"></polygon><polygon fill="#D6C2B2" stroke="#D6C2B2" points="97.21048578619957,165.9417873620987 97.57122106850147,174.47381108999252 74.99505713582039,169.93516013026237"></polygon><polygon fill="#D6C2B2" stroke="#D6C2B2" points="74.99505713582039,169.93516013026237 99.22797054052353,148.91866832971573 97.21048578619957,165.9417873620987"></polygon><polygon fill="#E47719" stroke="#E47719" points="99.22797054052353,148.91866832971573 74.99505713582039,169.93516013026237 78.52242782711983,137.9101288318634"></polygon><polygon fill="#D6C2B2" stroke="#D6C2B2" points="129.1491311043501,165.99857717752457 153.86163741350174,170.08932203054428 129.18763644993305,174.54182863235474"></polygon><polygon fill="#D6C2B2" stroke="#D6C2B2" points="153.86163741350174,170.08932203054428 129.1491311043501,165.99857717752457 127.07160491496325,148.94742995500565"></polygon><polygon fill="#E47719" stroke="#E47719" points="127.07160491496325,148.94742995500565 149.65257987380028,137.949376180768 153.86163741350174,170.08932203054428"></polygon><polygon fill="#CD6200" stroke="#CD6200" points="102.82300062477589,105.69476682692766 92.88074389100075,114.38025655923411 78.14010247588158,121.23775588348508"></polygon><polygon fill="#CD6200" stroke="#CD6200" points="150.1437072455883,121.2249057739973 135.29074229300022,114.35996317537501 125.26692431420088,105.67550301551819"></polygon><polygon fill="#243343" stroke="#243343" points="98.85579846799374,126.62057057023048 78.14010247588158,121.23775588348508 92.88074389100075,114.38025655923411"></polygon><polygon fill="#F78419" stroke="#F78419" points="78.52242782711983,137.9101288318634 78.14010247588158,121.23775588348508 98.85579846799374,126.62057057023048"></polygon><polygon fill="#243343" stroke="#243343" points="129.09945286810398,126.62230219691992 135.29074229300022,114.35996317537501 150.1437072455883,121.2249057739973"></polygon><polygon fill="#F78419" stroke="#F78419" points="149.65257987380028,137.949376180768 129.09945286810398,126.62230219691992 150.1437072455883,121.2249057739973"></polygon><polygon fill="#CD6200" stroke="#CD6200" points="92.88074389100075,114.38025655923411 102.82300062477589,105.69476682692766 98.85579846799374,126.62057057023048"></polygon><polygon fill="#CD6200" stroke="#CD6200" points="135.29074229300022,114.35996317537501 129.09945286810398,126.62230219691992 125.26692431420088,105.67550301551819"></polygon><polygon fill="#E47424" stroke="#E47424" points="98.85579846799374,126.62057057023048 102.82300062477589,105.69476682692766 103.56895729899406,118.06247926317155"></polygon><polygon fill="#F78419" stroke="#F78419" points="103.56895729899406,118.06247926317155 102.82300062477589,105.69476682692766 125.26692431420088,105.67550301551819"></polygon><polygon fill="#F78419" stroke="#F78419" points="125.26692431420088,105.67550301551819 124.20913174748421,118.05593275465071 103.56895729899406,118.06247926317155"></polygon><polygon fill="#E17719" stroke="#E17719" points="129.09945286810398,126.62230219691992 124.20913174748421,118.05593275465071 125.26692431420088,105.67550301551819"></polygon><polygon fill="#C0AC9D" stroke="#C0AC9D" points="97.57122106850147,174.47381108999252 98.90680991113186,181.50017470121384 82.93338909745216,175.2270284295082"></polygon><polygon fill="#C0AC9D" stroke="#C0AC9D" points="145.423404276371,175.36361873149872 127.75625377893448,181.57110542058945 129.18763644993305,174.54182863235474"></polygon><polygon fill="#F78419" stroke="#F78419" points="99.22797054052353,148.91866832971573 78.52242782711983,137.9101288318634 98.85579846799374,126.62057057023048"></polygon><polygon fill="#F78419" stroke="#F78419" points="129.09945286810398,126.62230219691992 149.65257987380028,137.949376180768 127.07160491496325,148.94742995500565"></polygon><polygon fill="#E47424" stroke="#E47424" points="103.56895729899406,118.06247926317155 102.81709372997284,146.42042368650436 98.85579846799374,126.62057057023048"></polygon><polygon fill="#F78419" stroke="#F78419" points="98.85579846799374,126.62057057023048 102.81709372997284,146.42042368650436 99.22797054052353,148.91866832971573"></polygon><polygon fill="#E47424" stroke="#E47424" points="124.20913174748421,118.05593275465071 129.09945286810398,126.62230219691992 123.47610015422106,146.43950328230858"></polygon><polygon fill="#F78419" stroke="#F78419" points="127.07160491496325,148.94742995500565 123.47610015422106,146.43950328230858 129.09945286810398,126.62230219691992"></polygon><polygon fill="#F78419" stroke="#F78419" points="103.56895729899406,118.06247926317155 124.20913174748421,118.05593275465071 123.47610015422106,146.43950328230858"></polygon><polygon fill="#F78419" stroke="#F78419" points="123.47610015422106,146.43950328230858 102.81709372997284,146.42042368650436 103.56895729899406,118.06247926317155"></polygon><polygon fill="#C0AC9D" stroke="#C0AC9D" points="98.90680991113186,181.50017470121384 97.57122106850147,174.47381108999252 97.21048578619957,165.9417873620987"></polygon><polygon fill="#C0AC9D" stroke="#C0AC9D" points="129.1491311043501,165.99857717752457 129.18763644993305,174.54182863235474 127.75625377893448,181.57110542058945"></polygon><polygon fill="#C0AC9D" stroke="#C0AC9D" points="97.21048578619957,165.9417873620987 98.96754793822765,163.56122478842735 98.90680991113186,181.50017470121384"></polygon><polygon fill="#C0AC9D" stroke="#C0AC9D" points="98.90680991113186,181.50017470121384 98.96754793822765,163.56122478842735 127.1987659484148,163.60847651958466"></polygon><polygon fill="#C0AC9D" stroke="#C0AC9D" points="127.1987659484148,163.60847651958466 127.75625377893448,181.57110542058945 98.90680991113186,181.50017470121384"></polygon><polygon fill="#C0AC9D" stroke="#C0AC9D" points="127.75625377893448,181.57110542058945 127.1987659484148,163.60847651958466 129.1491311043501,165.99857717752457"></polygon><polygon fill="rgb(0,0,0)" stroke="#000000" points="98.96754793822765,163.56122478842735 97.21048578619957,165.9417873620987 99.22797054052353,148.91866832971573"></polygon><polygon fill="rgb(0,0,0)" stroke="#000000" points="127.07160491496325,148.94742995500565 129.1491311043501,165.99857717752457 127.1987659484148,163.60847651958466"></polygon><polygon fill="rgb(0,0,0)" stroke="#000000" points="102.43014328181744,148.53220283985138 102.81709372997284,146.42042368650436 123.47610015422106,146.43950328230858"></polygon><polygon fill="rgb(0,0,0)" stroke="#000000" points="99.22797054052353,148.91866832971573 102.81709372997284,146.42042368650436 102.43014328181744,148.53220283985138"></polygon><polygon fill="rgb(0,0,0)" stroke="#000000" points="99.22797054052353,148.91866832971573 100.13320088386536,151.12395361065865 98.96754793822765,163.56122478842735"></polygon><polygon fill="rgb(0,0,0)" stroke="#000000" points="102.43014328181744,148.53220283985138 100.13320088386536,151.12395361065865 99.22797054052353,148.91866832971573"></polygon><polygon fill="rgb(0,0,0)" stroke="#000000" points="123.47610015422106,146.43950328230858 123.48119478672743,148.5535889863968 102.43014328181744,148.53220283985138"></polygon><polygon fill="rgb(0,0,0)" stroke="#000000" points="123.48119478672743,148.5535889863968 123.47610015422106,146.43950328230858 127.07160491496325,148.94742995500565"></polygon><polygon fill="rgb(0,0,0)" stroke="#000000" points="127.1987659484148,163.60847651958466 125.78141365200281,151.15292087197304 127.07160491496325,148.94742995500565"></polygon><polygon fill="rgb(0,0,0)" stroke="#000000" points="127.07160491496325,148.94742995500565 125.78141365200281,151.15292087197304 123.48119478672743,148.5535889863968"></polygon><polygon fill="rgb(0,0,0)" stroke="#000000" points="127.1987659484148,163.60847651958466 98.96754793822765,163.56122478842735 100.13320088386536,151.12395361065865"></polygon><polygon fill="rgb(0,0,0)" stroke="#000000" points="100.13320088386536,151.12395361065865 125.78141365200281,151.15292087197304 127.1987659484148,163.60847651958466"></polygon><polygon fill="rgb(0,0,0)" stroke="#000000" points="100.13320088386536,151.12395361065865 102.43014328181744,148.53220283985138 123.48119478672743,148.5535889863968"></polygon><polygon fill="rgb(0,0,0)" stroke="#000000" points="123.48119478672743,148.5535889863968 125.78141365200281,151.15292087197304 100.13320088386536,151.12395361065865"></polygon></svg>