<svg xmlns:xlink="http://www.w3.org/1999/xlink" xmlns="http://www.w3.org/2000/svg" x="0px" y="0px" viewBox="0 0 50 40.733" enable-background="new 0 0 50 40.733" xml:space="preserve" width="50"  height="40.733" ><g fill="#FFFFFF"><g fill="#FFFFFF"><path d="M26.848,1.851v0.234c3.192,0.822,5.555,3.724,5.555,7.172c0,3.449-2.362,6.349-5.555,7.172v22.452c0,1.021-0.829,1.852-1.852,1.852c-1.023,0-1.852-0.83-1.852-1.852V16.43c-3.194-0.823-5.556-3.725-5.556-7.172c0-3.449,2.363-6.35,5.556-7.172V1.851C23.145,0.828,23.973,0,24.996,0C26.019,0,26.848,0.828,26.848,1.851z M21.292,9.258c0,2.041,1.66,3.702,3.704,3.702c2.041,0,3.701-1.66,3.701-3.702c0-2.042-1.658-3.704-3.701-3.704C22.955,5.554,21.292,7.214,21.292,9.258z" fill="#FFFFFF"></path> <path d="M9.258,24.304L9.258,24.304c3.192,0.823,5.555,3.725,5.555,7.171c0,3.449-2.363,6.349-5.555,7.172v0.234c0,1.021-0.83,1.852-1.852,1.852c-1.023,0-1.852-0.83-1.852-1.852v-0.234C2.36,37.824,0,34.923,0,31.476c0-3.449,2.362-6.349,5.554-7.171V1.851C5.554,0.828,6.383,0,7.406,0c1.022,0,1.852,0.828,1.852,1.851V24.304z M3.702,31.476c0,2.041,1.662,3.705,3.704,3.705s3.703-1.662,3.703-3.705c0-2.041-1.66-3.702-3.703-3.702C5.365,27.773,3.702,29.434,3.702,31.476z" fill="#FFFFFF"></path> <path d="M44.438,15.972L44.438,15.972c3.192,0.822,5.555,3.724,5.555,7.172c0,3.449-2.362,6.349-5.555,7.172v8.565c0,1.021-0.829,1.852-1.853,1.852c-1.021,0-1.852-0.83-1.852-1.852v-8.565c-3.193-0.823-5.553-3.725-5.553-7.172c0-3.449,2.362-6.35,5.553-7.172V1.851c0-1.023,0.83-1.851,1.852-1.851c1.023,0,1.853,0.828,1.853,1.851V15.972z M38.882,23.145c0,2.041,1.66,3.703,3.703,3.703s3.704-1.661,3.704-3.703s-1.661-3.704-3.704-3.704C40.544,19.441,38.882,21.101,38.882,23.145z" fill="#FFFFFF"></path></g></g></svg>